<svg width="136" height="32" viewBox="0 0 136 32" fill="none" xmlns="http://www.w3.org/2000/svg">
<g clip-path="url(#clip0_1603_81)">
<path d="M11.3425 6.86167C9.6962 6.86167 9.33035 7.58681 9.33035 9.03711V11.5751H13.5377L13.1718 15.7447H9.33035V28.2535H4.2084V15.7447H0.732788V11.5751H4.2084V9.03711C4.2084 4.86752 5.85474 2.69208 10.6108 2.69208H13.5377V6.49909L11.3425 6.86167ZM13.9035 19.3704C13.9035 14.657 16.0986 11.2125 20.8547 11.2125C23.4157 11.2125 24.8791 12.4816 25.6108 14.1131V11.5751H30.5499V28.2535H25.6108V25.7155C24.8791 27.347 23.2328 28.6161 20.8547 28.6161C16.0986 28.6161 13.9035 25.1716 13.9035 20.4582V19.3704ZM19.0255 20.4582C19.0255 22.9962 19.9401 24.6277 22.3182 24.6277C24.6962 24.6277 25.4279 23.1775 25.4279 20.8207V19.1892C25.4279 16.8324 24.3303 15.3821 22.3182 15.3821C20.306 15.3821 19.0255 17.0137 19.0255 19.5517V20.4582ZM41.1596 11.2125C43.1718 11.2125 45.0011 11.5751 46.0986 12.3003L45.0011 15.926C43.9115 15.4308 42.724 15.1831 41.5255 15.2008C38.7816 15.2008 37.5011 16.8324 37.5011 19.5517V20.4582C37.5011 23.1775 38.7816 24.809 41.5255 24.809C42.724 24.8268 43.9115 24.5791 45.0011 24.0839L46.0986 27.7096C45.0011 28.4348 43.1718 28.7973 41.1596 28.7973C35.123 28.7973 32.3791 25.5342 32.3791 20.4582V19.733C32.3791 14.4757 35.123 11.2125 41.1596 11.2125ZM46.6474 20.6394V19.1892C46.6474 14.4757 49.3913 11.3938 54.8791 11.3938C60.3669 11.3938 62.3791 14.4757 62.3791 19.1892V21.9085H51.7694C51.9523 24.2652 52.8669 25.1716 55.7938 25.1716C58.7206 25.1716 59.6352 24.809 61.2816 24.0839L62.1962 27.5283C60.9157 28.2535 58.1718 28.7973 55.6108 28.7973C49.0255 28.6161 46.6474 25.5342 46.6474 20.6394ZM51.7694 18.464H57.9889V18.1014C57.9889 16.2886 57.2572 14.8383 55.0621 14.8383C52.8669 14.8383 51.7694 16.1073 51.7694 18.464ZM81.2206 20.4582C81.2206 25.1716 79.0255 28.6161 74.2694 28.6161C71.7084 28.6161 69.8791 27.347 69.3304 25.7155V28.2535H64.5743V3.23594L69.6962 2.69208V13.7506C70.4279 12.3003 72.0743 11.0313 74.4523 11.0313C79.2084 11.0313 81.4035 14.4757 81.4035 19.1892L81.2206 20.4582ZM76.0986 19.3704C76.0986 17.0137 75.184 15.2008 72.806 15.2008C70.4279 15.2008 69.5133 16.6511 69.5133 19.0079V20.8207C69.5133 23.1775 70.6108 24.6277 72.806 24.6277C75.0011 24.6277 76.0986 22.8149 76.0986 20.4582V19.3704ZM83.0499 20.2769V19.3704C83.0499 14.657 85.7938 11.0313 91.4645 11.0313C97.1352 11.0313 99.8791 14.4757 99.8791 19.3704V20.2769C99.8791 24.9903 97.1352 28.6161 91.4645 28.6161C85.7938 28.6161 83.0499 25.1716 83.0499 20.2769ZM94.7572 19.0079C94.7572 16.8324 93.8425 15.0196 91.4645 15.0196C89.0864 15.0196 88.1718 16.8324 88.1718 19.0079V20.6394C88.1718 22.8149 89.0864 24.6277 91.4645 24.6277C93.8425 24.6277 94.7572 22.8149 94.7572 20.6394V19.0079ZM101.343 20.2769V19.3704C101.343 14.657 104.086 11.0313 109.757 11.0313C115.428 11.0313 118.172 14.4757 118.172 19.3704V20.2769C118.172 24.9903 115.428 28.6161 109.757 28.6161C104.086 28.6161 101.343 25.1716 101.343 20.2769ZM113.05 19.0079C113.05 16.8324 112.135 15.0196 109.757 15.0196C107.379 15.0196 106.465 16.8324 106.465 19.0079V20.6394C106.465 22.8149 107.379 24.6277 109.757 24.6277C112.135 24.6277 113.05 22.8149 113.05 20.6394V19.0079ZM125.123 19.5517L130.062 11.5751H135.55L130.245 19.733L135.733 28.2535H130.428L125.123 20.0956V28.2535H120.001V3.23594L125.123 2.69208V19.5517Z" fill="#7E7676"/>
</g>
<defs>
<clipPath id="clip0_1603_81">
<rect width="135" height="31" fill="white" transform="translate(0.732788 0.154053)"/>
</clipPath>
</defs>
</svg>
