<svg width="121" height="40" viewBox="0 0 121 40" fill="none" xmlns="http://www.w3.org/2000/svg">
<path d="M30.0135 13.8811H16.0027V18.0324H25.927C25.4405 23.8703 20.5757 26.3351 16.0027 26.3351C10.1324 26.3351 5.04054 21.7297 5.04054 15.2757C5.04054 8.98379 9.90541 4.15135 16.0027 4.15135C20.7054 4.15135 23.4946 7.16757 23.4946 7.16757L26.4135 4.15135C26.4135 4.15135 22.6838 0 15.873 0C7.21351 0 0.5 7.32973 0.5 15.2108C0.5 22.9622 6.82432 30.5189 16.1 30.5189C24.273 30.5189 30.2405 24.9081 30.2405 16.6378C30.2405 14.8865 30.0135 13.8811 30.0135 13.8811Z" fill="#7E7676"/>
<path d="M41.4617 10.8649C35.7211 10.8649 31.6022 15.373 31.6022 20.5946C31.6022 25.9135 35.5914 30.4865 41.5265 30.4865C46.9103 30.4865 51.2887 26.3676 51.2887 20.7243C51.3211 14.2054 46.1968 10.8649 41.4617 10.8649ZM41.5265 14.7243C44.3482 14.7243 47.04 16.9946 47.04 20.6919C47.04 24.2919 44.3806 26.6595 41.5265 26.6595C38.3806 26.6595 35.9157 24.1622 35.9157 20.6919C35.9157 17.2541 38.3482 14.7243 41.5265 14.7243Z" fill="#7E7676"/>
<path d="M62.9329 10.8649C57.1924 10.8649 53.0735 15.373 53.0735 20.5946C53.0735 25.9135 57.0627 30.4865 62.9978 30.4865C68.3816 30.4865 72.76 26.3676 72.76 20.7243C72.76 14.2054 67.6356 10.8649 62.9329 10.8649ZM62.9978 14.7243C65.8194 14.7243 68.5113 16.9946 68.5113 20.6919C68.5113 24.2919 65.8519 26.6595 62.9978 26.6595C59.8519 26.6595 57.387 24.1622 57.387 20.6919C57.3546 17.2541 59.8194 14.7243 62.9978 14.7243Z" fill="#7E7676"/>
<path d="M83.9489 10.8649C78.6624 10.8649 74.5435 15.4703 74.5435 20.6595C74.5435 26.5622 79.3435 30.4865 83.884 30.4865C86.6732 30.4865 88.1651 29.3838 89.2678 28.0865V30.0324C89.2678 33.4054 87.2246 35.4487 84.1111 35.4487C81.1273 35.4487 79.6029 33.2108 79.084 31.9459L75.3219 33.5351C76.6516 36.3568 79.3435 39.3081 84.1435 39.3081C89.3975 39.3081 93.3867 36 93.3867 29.0919V11.4487H89.2678V13.1027C88.003 11.773 86.2516 10.8649 83.9489 10.8649ZM84.3381 14.7243C86.9327 14.7243 89.5921 16.9297 89.5921 20.6919C89.5921 24.5189 86.9327 26.627 84.3057 26.627C81.484 26.627 78.8894 24.3568 78.8894 20.7243C78.857 16.9622 81.5813 14.7243 84.3381 14.7243Z" fill="#7E7676"/>
<path d="M111.646 10.8649C106.684 10.8649 102.5 14.8216 102.5 20.6595C102.5 26.8541 107.17 30.5189 112.132 30.5189C116.284 30.5189 118.846 28.2487 120.338 26.2054L116.932 23.9351C116.057 25.2973 114.565 26.627 112.132 26.627C109.376 26.627 108.111 25.1027 107.332 23.6432L120.5 18.1946L119.819 16.6054C118.554 13.4595 115.57 10.8649 111.646 10.8649ZM111.841 14.627C113.624 14.627 114.922 15.5676 115.473 16.7351L106.684 20.4C106.295 17.546 108.986 14.627 111.841 14.627Z" fill="#7E7676"/>
<path d="M100.554 1.00592H96.2403V29.9357H100.554V1.00592Z" fill="#7E7676"/>
</svg>
